<svg xmlns="http://www.w3.org/2000/svg" viewBox="0 0 1200 900" role="img" aria-labelledby="title desc">
  <title id="title">AI Consulting Conference 2026</title>
  <desc id="desc">Dark blue and gold conference poster with speaker company names.</desc>
  <defs>
    <linearGradient id="bg" x1="0" x2="1" y1="0" y2="1">
      <stop offset="0" stop-color="#061d38"/>
      <stop offset="0.58" stop-color="#0f3259"/>
      <stop offset="1" stop-color="#102a3f"/>
    </linearGradient>
    <linearGradient id="gold" x1="0" x2="1">
      <stop offset="0" stop-color="#f6d77b"/>
      <stop offset="1" stop-color="#d6a62d"/>
    </linearGradient>
    <pattern id="grid" width="72" height="72" patternUnits="userSpaceOnUse">
      <path d="M72 0H0v72" fill="none" stroke="#ffffff" stroke-opacity=".08" stroke-width="2"/>
    </pattern>
  </defs>
  <rect width="1200" height="900" fill="url(#bg)"/>
  <rect width="1200" height="900" fill="url(#grid)"/>
  <path d="M0 740C210 675 330 610 545 655c210 44 328 143 655 56v189H0Z" fill="#031426" opacity=".72"/>
  <path d="M118 134h964v632H118Z" fill="none" stroke="url(#gold)" stroke-width="10"/>
  <path d="M172 190h856" stroke="#f6d77b" stroke-opacity=".55" stroke-width="3"/>
  <text x="172" y="292" fill="#ffffff" font-family="Arial, Helvetica, sans-serif" font-size="98" font-weight="700" letter-spacing="0">AI Consulting</text>
  <text x="172" y="386" fill="url(#gold)" font-family="Arial, Helvetica, sans-serif" font-size="76" font-weight="700" letter-spacing="0">Conference 2026</text>
  <text x="174" y="475" fill="#ffffff" font-family="Arial, Helvetica, sans-serif" font-size="34" font-weight="500" letter-spacing="0">Strategy. Technology. Leadership.</text>
  <g fill="#ffffff" font-family="Arial, Helvetica, sans-serif" font-size="34" font-weight="700">
    <text x="174" y="604">PwC</text>
    <text x="330" y="604">BCG</text>
    <text x="486" y="604">Roland Berger</text>
    <text x="174" y="674">IBM</text>
    <text x="330" y="674">Capgemini Invent</text>
  </g>
  <circle cx="968" cy="612" r="106" fill="none" stroke="#f6d77b" stroke-width="8"/>
  <path d="M924 620h88m0 0-36-36m36 36-36 36" fill="none" stroke="#f6d77b" stroke-width="10" stroke-linecap="round" stroke-linejoin="round"/>
</svg>
